<svg width="50" height="36" viewBox="0 0 50 36" fill="none" xmlns="http://www.w3.org/2000/svg">
<path d="M15.9091 8.96739H34.0909V26.9022H15.9091V8.96739Z" fill="white"/>
<path d="M39.6156 0H10.3844C4.64923 0 0 4.71339 0 10.5277V25.3419C0 31.1562 4.64923 35.8696 10.3844 35.8696H39.6156C45.3508 35.8696 50 31.1562 50 25.3419V10.5277C50 4.71339 45.3508 0 39.6156 0ZM32.5928 18.6555L18.9203 25.2665C18.556 25.4426 18.1352 25.1733 18.1352 24.7642V11.1291C18.1352 10.7142 18.5671 10.4452 18.9322 10.6328L32.6046 17.6569C33.0111 17.8657 33.004 18.4567 32.5928 18.6555Z" fill="#3F51B5"/>
</svg>
